<svg width="18" height="18" viewBox="0 0 18 18" fill="none" xmlns="http://www.w3.org/2000/svg">
<path d="M8.71875 0.53125C3.90234 0.53125 0 4.46875 0 9.25C0 14.0664 3.90234 17.9687 8.71875 17.9687C13.5 17.9687 17.4375 14.0664 17.4375 9.25C17.4375 4.46875 13.5 0.53125 8.71875 0.53125ZM8.71875 15.7187C5.13281 15.7187 2.25 12.8359 2.25 9.25C2.25 5.69922 5.13281 2.78125 8.71875 2.78125C12.2695 2.78125 15.1875 5.69922 15.1875 9.25C15.1875 12.8359 12.2695 15.7187 8.71875 15.7187ZM8.71875 4.75C6.22266 4.75 4.21875 6.78906 4.21875 9.25C4.21875 11.7461 6.22266 13.75 8.71875 13.75C11.1797 13.75 13.2187 11.7461 13.2187 9.25C13.2187 6.78906 11.1797 4.75 8.71875 4.75ZM8.71875 11.5C7.45312 11.5 6.46875 10.5156 6.46875 9.25C6.46875 8.01953 7.45312 7 8.71875 7C9.94922 7 10.9687 8.01953 10.9687 9.25C10.9687 10.5156 9.94922 11.5 8.71875 11.5Z" fill="black"/>
</svg>
