<svg width="16" height="20" viewBox="0 0 16 20" fill="none" xmlns="http://www.w3.org/2000/svg">
<path d="M10.8441 1.03434C10.352 1.02936 9.99685 1.37734 9.99187 1.8695L9.8637 14.5251L8.17629 14.508C7.40289 14.5002 7.04244 15.3755 7.56442 15.9081L10.3483 18.749C10.6611 19.1037 11.1884 19.1091 11.5084 18.7607L14.3492 15.9769C14.917 15.4552 14.5392 14.5725 13.801 14.565L12.1136 14.5479L12.2418 1.89229C12.2467 1.40013 11.8636 1.04467 11.4066 1.04004L10.8441 1.03434ZM5.3269 18.1356L5.45507 5.48L7.14248 5.49708C7.88073 5.50456 8.27668 4.59446 7.71955 4.06145L4.93568 1.22061C4.62285 0.865863 4.09553 0.860523 3.77558 1.20886L0.934744 3.99274C0.402087 4.51471 0.744375 5.43229 1.51777 5.44012L3.20519 5.45721L3.07702 18.1128C3.07239 18.5698 3.42002 18.9601 3.91218 18.9651L4.47465 18.9708C4.93166 18.9754 5.32228 18.5926 5.3269 18.1356Z" fill="#fff" />
</svg>
