<svg width="14" height="14" viewBox="0 0 14 14" fill="none" xmlns="http://www.w3.org/2000/svg">
<path d="M12.8743 10.3733L10.0179 7.51685C9.43192 6.95532 8.60184 6.83325 7.91824 7.17505L5.33035 4.58716V3.04907L2.20535 0.705322L0.642853 2.26782L2.9866 5.39282H4.50027L7.08817 8.00513C6.77078 8.68872 6.86844 9.5188 7.42996 10.0803L10.2864 12.9612C10.6526 13.303 11.2141 13.303 11.5804 12.9612L12.8743 11.6672C13.2161 11.301 13.2161 10.7395 12.8743 10.3733ZM8.72391 6.19849C9.43192 6.19849 10.0667 6.46704 10.555 6.95532L11.0432 7.4436C11.4095 7.27271 11.7757 7.02856 12.093 6.71118C12.9964 5.80786 13.3138 4.53833 13.0208 3.39087C12.972 3.17114 12.7034 3.0979 12.5325 3.24438L10.7259 5.07544L9.0657 4.78247L8.79715 3.12231L10.6038 1.31567C10.7747 1.14478 10.677 0.876221 10.4573 0.827393C9.30984 0.534424 8.04031 0.851807 7.13699 1.75513C6.42899 2.43872 6.1116 3.36646 6.1116 4.26978L8.13797 6.27173C8.33328 6.2229 8.52859 6.19849 8.72391 6.19849ZM6.18484 8.20044L4.81766 6.83325L1.08231 10.5442C0.471954 11.1545 0.471954 12.1555 1.08231 12.7659C1.69266 13.3762 2.69363 13.3762 3.30399 12.7659L6.30692 9.73853C6.13602 9.25024 6.06277 8.73755 6.18484 8.20044ZM2.20535 12.2288C1.86356 12.2288 1.61942 11.9846 1.61942 11.6428C1.61942 11.3254 1.86356 11.0569 2.20535 11.0569C2.52274 11.0569 2.79129 11.3254 2.79129 11.6428C2.79129 11.9846 2.52274 12.2288 2.20535 12.2288Z" fill="white"/>
</svg>
