<svg width="12" height="14" viewBox="0 0 12 14" fill="none" xmlns="http://www.w3.org/2000/svg">
<path d="M6.11151 6.95532C7.8205 6.95532 9.23651 5.56372 9.23651 3.83032C9.23651 2.12134 7.8205 0.705322 6.11151 0.705322C4.37811 0.705322 2.98651 2.12134 2.98651 3.83032C2.98651 5.56372 4.37811 6.95532 6.11151 6.95532ZM8.28436 7.73657H7.86932C7.33221 8.00513 6.74628 8.1272 6.11151 8.1272C5.47675 8.1272 4.86639 8.00513 4.32928 7.73657H3.91425C2.1076 7.73657 0.642761 9.22583 0.642761 11.0325V12.0334C0.642761 12.6926 1.15546 13.2053 1.81464 13.2053H10.4084C11.0432 13.2053 11.5803 12.6926 11.5803 12.0334V11.0325C11.5803 9.22583 10.091 7.73657 8.28436 7.73657Z" fill="white"/>
</svg>
